<svg xmlns="http://www.w3.org/2000/svg" width="950" height="450" fill="none"><g fill="#fff" opacity=".23"><path d="M37.068 424.023c1.21 0 2.193.977 2.193 2.183a2.188 2.188 0 0 1-2.193 2.183 2.188 2.188 0 0 1-2.193-2.183c0-1.206.982-2.183 2.193-2.183ZM37.068 387.346c1.21 0 2.193.978 2.193 2.183a2.189 2.189 0 0 1-2.193 2.184 2.189 2.189 0 0 1-2.193-2.184c0-1.205.982-2.183 2.193-2.183ZM37.068 332.331c1.21 0 2.193.978 2.193 2.184a2.188 2.188 0 0 1-2.193 2.183 2.188 2.188 0 0 1-2.193-2.183c0-1.206.982-2.184 2.193-2.184ZM37.068 258.978c1.21 0 2.193.978 2.193 2.183a2.188 2.188 0 0 1-2.193 2.183 2.188 2.188 0 0 1-2.193-2.183c0-1.205.982-2.183 2.193-2.183ZM37.068 203.963c1.21 0 2.193.978 2.193 2.183a2.189 2.189 0 0 1-2.193 2.184 2.189 2.189 0 0 1-2.193-2.184c0-1.205.982-2.183 2.193-2.183ZM37.068 405.685c1.21 0 2.193.977 2.193 2.183a2.188 2.188 0 0 1-2.193 2.183 2.188 2.188 0 0 1-2.193-2.183c0-1.206.982-2.183 2.193-2.183ZM37.068 350.67c1.21 0 2.193.977 2.193 2.183a2.188 2.188 0 0 1-2.193 2.183 2.188 2.188 0 0 1-2.193-2.183c0-1.206.982-2.183 2.193-2.183ZM37.068 277.316c1.21 0 2.193.978 2.193 2.184a2.188 2.188 0 0 1-2.193 2.183 2.188 2.188 0 0 1-2.193-2.183c0-1.206.982-2.184 2.193-2.184ZM37.068 222.302c1.21 0 2.193.977 2.193 2.183a2.188 2.188 0 0 1-2.193 2.183 2.188 2.188 0 0 1-2.193-2.183c0-1.206.982-2.183 2.193-2.183ZM37.068 185.625c1.21 0 2.193.977 2.193 2.183a2.188 2.188 0 0 1-2.193 2.183 2.188 2.188 0 0 1-2.193-2.183c0-1.206.982-2.183 2.193-2.183ZM37.068 369.008c1.21 0 2.193.977 2.193 2.183a2.188 2.188 0 0 1-2.193 2.183 2.188 2.188 0 0 1-2.193-2.183c0-1.206.982-2.183 2.193-2.183ZM37.068 295.655c1.21 0 2.193.977 2.193 2.183a2.188 2.188 0 0 1-2.193 2.183 2.188 2.188 0 0 1-2.193-2.183c0-1.206.982-2.183 2.193-2.183ZM37.068 240.64c1.21 0 2.193.977 2.193 2.183a2.188 2.188 0 0 1-2.193 2.183 2.188 2.188 0 0 1-2.193-2.183c0-1.206.982-2.183 2.193-2.183ZM37.068 313.993c1.21 0 2.193.978 2.193 2.183a2.188 2.188 0 0 1-2.193 2.183 2.188 2.188 0 0 1-2.193-2.183c0-1.205.982-2.183 2.193-2.183ZM92.326 424.023c1.211 0 2.193.977 2.193 2.183a2.188 2.188 0 0 1-2.193 2.183 2.188 2.188 0 0 1-2.192-2.183c0-1.206.981-2.183 2.192-2.183ZM92.326 387.346c1.211 0 2.193.978 2.193 2.183a2.189 2.189 0 0 1-2.193 2.184 2.189 2.189 0 0 1-2.192-2.184c0-1.205.981-2.183 2.192-2.183ZM92.326 332.331c1.211 0 2.193.978 2.193 2.184a2.188 2.188 0 0 1-2.193 2.183 2.188 2.188 0 0 1-2.192-2.183c0-1.206.981-2.184 2.192-2.184ZM92.326 258.978c1.211 0 2.193.978 2.193 2.183a2.188 2.188 0 0 1-2.193 2.183 2.188 2.188 0 0 1-2.192-2.183c0-1.205.981-2.183 2.192-2.183ZM92.326 203.963c1.211 0 2.193.978 2.193 2.183a2.189 2.189 0 0 1-2.193 2.184 2.189 2.189 0 0 1-2.192-2.184c0-1.205.981-2.183 2.192-2.183ZM92.326 405.685c1.211 0 2.193.977 2.193 2.183a2.188 2.188 0 0 1-2.193 2.183 2.188 2.188 0 0 1-2.192-2.183c0-1.206.981-2.183 2.192-2.183ZM92.326 350.67c1.211 0 2.193.977 2.193 2.183a2.188 2.188 0 0 1-2.193 2.183 2.188 2.188 0 0 1-2.192-2.183c0-1.206.981-2.183 2.192-2.183ZM92.326 277.316c1.211 0 2.193.978 2.193 2.184a2.188 2.188 0 0 1-2.193 2.183 2.188 2.188 0 0 1-2.192-2.183c0-1.206.981-2.184 2.192-2.184ZM92.326 222.302c1.211 0 2.193.977 2.193 2.183a2.188 2.188 0 0 1-2.193 2.183 2.188 2.188 0 0 1-2.192-2.183c0-1.206.981-2.183 2.192-2.183ZM92.326 185.625c1.211 0 2.193.977 2.193 2.183a2.188 2.188 0 0 1-2.193 2.183 2.188 2.188 0 0 1-2.192-2.183c0-1.206.981-2.183 2.192-2.183ZM92.326 369.008c1.211 0 2.193.977 2.193 2.183a2.188 2.188 0 0 1-2.193 2.183 2.188 2.188 0 0 1-2.192-2.183c0-1.206.981-2.183 2.192-2.183ZM92.326 295.655c1.211 0 2.193.977 2.193 2.183a2.188 2.188 0 0 1-2.193 2.183 2.188 2.188 0 0 1-2.192-2.183c0-1.206.981-2.183 2.192-2.183ZM92.326 240.64c1.211 0 2.193.977 2.193 2.183a2.188 2.188 0 0 1-2.193 2.183 2.188 2.188 0 0 1-2.192-2.183c0-1.206.981-2.183 2.192-2.183ZM92.326 313.993c1.211 0 2.193.978 2.193 2.183a2.188 2.188 0 0 1-2.193 2.183 2.188 2.188 0 0 1-2.192-2.183c0-1.205.981-2.183 2.192-2.183ZM73.907 424.023c1.21 0 2.193.977 2.193 2.183a2.188 2.188 0 0 1-2.193 2.183 2.188 2.188 0 0 1-2.193-2.183c0-1.206.982-2.183 2.193-2.183ZM73.907 387.346c1.21 0 2.193.978 2.193 2.183a2.189 2.189 0 0 1-2.193 2.184 2.189 2.189 0 0 1-2.193-2.184c0-1.205.982-2.183 2.193-2.183ZM73.907 332.331c1.21 0 2.193.978 2.193 2.184a2.188 2.188 0 0 1-2.193 2.183 2.188 2.188 0 0 1-2.193-2.183c0-1.206.982-2.184 2.193-2.184ZM73.907 258.978c1.21 0 2.193.978 2.193 2.183a2.188 2.188 0 0 1-2.193 2.183 2.188 2.188 0 0 1-2.193-2.183c0-1.205.982-2.183 2.193-2.183ZM73.907 203.963c1.21 0 2.193.978 2.193 2.183a2.189 2.189 0 0 1-2.193 2.184 2.189 2.189 0 0 1-2.193-2.184c0-1.205.982-2.183 2.193-2.183ZM73.907 405.685c1.21 0 2.193.977 2.193 2.183a2.188 2.188 0 0 1-2.193 2.183 2.188 2.188 0 0 1-2.193-2.183c0-1.206.982-2.183 2.193-2.183ZM73.907 350.67c1.21 0 2.193.977 2.193 2.183a2.188 2.188 0 0 1-2.193 2.183 2.188 2.188 0 0 1-2.193-2.183c0-1.206.982-2.183 2.193-2.183ZM73.907 277.316c1.21 0 2.193.978 2.193 2.184a2.188 2.188 0 0 1-2.193 2.183 2.188 2.188 0 0 1-2.193-2.183c0-1.206.982-2.184 2.193-2.184ZM73.907 222.302c1.21 0 2.193.977 2.193 2.183a2.188 2.188 0 0 1-2.193 2.183 2.188 2.188 0 0 1-2.193-2.183c0-1.206.982-2.183 2.193-2.183ZM73.907 185.625c1.21 0 2.193.977 2.193 2.183a2.188 2.188 0 0 1-2.193 2.183 2.188 2.188 0 0 1-2.193-2.183c0-1.206.982-2.183 2.193-2.183ZM73.907 369.008c1.21 0 2.193.977 2.193 2.183a2.188 2.188 0 0 1-2.193 2.183 2.188 2.188 0 0 1-2.193-2.183c0-1.206.982-2.183 2.193-2.183ZM73.907 295.655c1.21 0 2.193.977 2.193 2.183a2.188 2.188 0 0 1-2.193 2.183 2.188 2.188 0 0 1-2.193-2.183c0-1.206.982-2.183 2.193-2.183ZM73.907 240.64c1.21 0 2.193.977 2.193 2.183a2.188 2.188 0 0 1-2.193 2.183 2.188 2.188 0 0 1-2.193-2.183c0-1.206.982-2.183 2.193-2.183ZM73.907 313.993c1.21 0 2.193.978 2.193 2.183a2.188 2.188 0 0 1-2.193 2.183 2.188 2.188 0 0 1-2.193-2.183c0-1.205.982-2.183 2.193-2.183ZM129.165 424.023c1.211 0 2.193.977 2.193 2.183a2.188 2.188 0 0 1-2.193 2.183 2.188 2.188 0 0 1-2.193-2.183c0-1.206.982-2.183 2.193-2.183ZM129.165 387.346c1.211 0 2.193.978 2.193 2.183a2.189 2.189 0 0 1-2.193 2.184 2.189 2.189 0 0 1-2.193-2.184c0-1.205.982-2.183 2.193-2.183ZM129.165 332.331c1.211 0 2.193.978 2.193 2.184a2.189 2.189 0 0 1-2.193 2.183 2.189 2.189 0 0 1-2.193-2.183c0-1.206.982-2.184 2.193-2.184ZM129.165 258.978c1.211 0 2.193.978 2.193 2.183a2.188 2.188 0 0 1-2.193 2.183 2.188 2.188 0 0 1-2.193-2.183c0-1.205.982-2.183 2.193-2.183ZM129.165 203.963c1.211 0 2.193.978 2.193 2.183a2.189 2.189 0 0 1-2.193 2.184 2.189 2.189 0 0 1-2.193-2.184c0-1.205.982-2.183 2.193-2.183ZM129.165 405.685c1.211 0 2.193.977 2.193 2.183a2.189 2.189 0 0 1-2.193 2.183 2.189 2.189 0 0 1-2.193-2.183c0-1.206.982-2.183 2.193-2.183ZM129.165 350.67c1.211 0 2.193.977 2.193 2.183a2.188 2.188 0 0 1-2.193 2.183 2.188 2.188 0 0 1-2.193-2.183c0-1.206.982-2.183 2.193-2.183ZM129.165 277.316c1.211 0 2.193.978 2.193 2.184a2.189 2.189 0 0 1-2.193 2.183 2.189 2.189 0 0 1-2.193-2.183c0-1.206.982-2.184 2.193-2.184ZM129.165 222.302c1.211 0 2.193.977 2.193 2.183a2.189 2.189 0 0 1-2.193 2.183 2.189 2.189 0 0 1-2.193-2.183c0-1.206.982-2.183 2.193-2.183ZM129.165 185.625c1.211 0 2.193.977 2.193 2.183a2.188 2.188 0 0 1-2.193 2.183 2.188 2.188 0 0 1-2.193-2.183c0-1.206.982-2.183 2.193-2.183ZM129.165 369.008c1.211 0 2.193.977 2.193 2.183a2.188 2.188 0 0 1-2.193 2.183 2.188 2.188 0 0 1-2.193-2.183c0-1.206.982-2.183 2.193-2.183ZM129.165 295.655c1.211 0 2.193.977 2.193 2.183a2.188 2.188 0 0 1-2.193 2.183 2.188 2.188 0 0 1-2.193-2.183c0-1.206.982-2.183 2.193-2.183ZM129.165 240.64c1.211 0 2.193.977 2.193 2.183a2.188 2.188 0 0 1-2.193 2.183 2.188 2.188 0 0 1-2.193-2.183c0-1.206.982-2.183 2.193-2.183ZM129.165 313.993c1.211 0 2.193.977 2.193 2.183a2.188 2.188 0 0 1-2.193 2.183 2.188 2.188 0 0 1-2.193-2.183c0-1.206.982-2.183 2.193-2.183ZM166.004 424.023c1.211 0 2.193.977 2.193 2.183a2.188 2.188 0 0 1-2.193 2.183 2.188 2.188 0 0 1-2.193-2.183c0-1.206.982-2.183 2.193-2.183ZM221.263 424.023c1.211 0 2.192.977 2.192 2.183a2.187 2.187 0 0 1-2.192 2.183 2.188 2.188 0 0 1-2.193-2.183c0-1.206.982-2.183 2.193-2.183ZM166.004 387.346c1.211 0 2.193.978 2.193 2.183a2.189 2.189 0 0 1-2.193 2.184 2.189 2.189 0 0 1-2.193-2.184c0-1.205.982-2.183 2.193-2.183ZM221.263 387.346c1.211 0 2.192.978 2.192 2.183a2.188 2.188 0 0 1-2.192 2.184 2.189 2.189 0 0 1-2.193-2.184c0-1.205.982-2.183 2.193-2.183ZM166.004 332.331c1.211 0 2.193.978 2.193 2.184a2.189 2.189 0 0 1-2.193 2.183 2.189 2.189 0 0 1-2.193-2.183c0-1.206.982-2.184 2.193-2.184ZM221.263 332.331c1.211 0 2.192.978 2.192 2.184a2.188 2.188 0 0 1-2.192 2.183 2.189 2.189 0 0 1-2.193-2.183c0-1.206.982-2.184 2.193-2.184ZM166.004 258.978c1.211 0 2.193.978 2.193 2.183a2.188 2.188 0 0 1-2.193 2.183 2.188 2.188 0 0 1-2.193-2.183c0-1.205.982-2.183 2.193-2.183ZM221.263 258.978c1.211 0 2.192.978 2.192 2.183a2.187 2.187 0 0 1-2.192 2.183 2.188 2.188 0 0 1-2.193-2.183c0-1.205.982-2.183 2.193-2.183ZM166.004 203.963c1.211 0 2.193.978 2.193 2.183a2.189 2.189 0 0 1-2.193 2.184 2.189 2.189 0 0 1-2.193-2.184c0-1.205.982-2.183 2.193-2.183ZM221.263 203.963c1.211 0 2.192.978 2.192 2.183a2.188 2.188 0 0 1-2.192 2.184 2.189 2.189 0 0 1-2.193-2.184c0-1.205.982-2.183 2.193-2.183ZM166.004 405.685c1.211 0 2.193.977 2.193 2.183a2.189 2.189 0 0 1-2.193 2.183 2.189 2.189 0 0 1-2.193-2.183c0-1.206.982-2.183 2.193-2.183ZM221.263 405.685c1.211 0 2.192.977 2.192 2.183a2.188 2.188 0 0 1-2.192 2.183 2.189 2.189 0 0 1-2.193-2.183c0-1.206.982-2.183 2.193-2.183ZM166.004 350.67c1.211 0 2.193.977 2.193 2.183a2.188 2.188 0 0 1-2.193 2.183 2.188 2.188 0 0 1-2.193-2.183c0-1.206.982-2.183 2.193-2.183ZM221.263 350.67c1.211 0 2.192.977 2.192 2.183a2.187 2.187 0 0 1-2.192 2.183 2.188 2.188 0 0 1-2.193-2.183c0-1.206.982-2.183 2.193-2.183ZM166.004 277.316c1.211 0 2.193.978 2.193 2.184a2.189 2.189 0 0 1-2.193 2.183 2.189 2.189 0 0 1-2.193-2.183c0-1.206.982-2.184 2.193-2.184ZM221.263 277.316c1.211 0 2.192.978 2.192 2.184a2.188 2.188 0 0 1-2.192 2.183 2.189 2.189 0 0 1-2.193-2.183c0-1.206.982-2.184 2.193-2.184ZM166.004 222.302c1.211 0 2.193.977 2.193 2.183a2.189 2.189 0 0 1-2.193 2.183 2.189 2.189 0 0 1-2.193-2.183c0-1.206.982-2.183 2.193-2.183ZM221.263 222.302c1.211 0 2.192.977 2.192 2.183a2.188 2.188 0 0 1-2.192 2.183 2.189 2.189 0 0 1-2.193-2.183c0-1.206.982-2.183 2.193-2.183ZM166.004 185.625c1.211 0 2.193.977 2.193 2.183a2.188 2.188 0 0 1-2.193 2.183 2.188 2.188 0 0 1-2.193-2.183c0-1.206.982-2.183 2.193-2.183ZM221.263 185.625c1.211 0 2.192.977 2.192 2.183a2.187 2.187 0 0 1-2.192 2.183 2.188 2.188 0 0 1-2.193-2.183c0-1.206.982-2.183 2.193-2.183ZM166.004 369.008c1.211 0 2.193.977 2.193 2.183a2.188 2.188 0 0 1-2.193 2.183 2.188 2.188 0 0 1-2.193-2.183c0-1.206.982-2.183 2.193-2.183ZM221.263 369.008c1.211 0 2.192.977 2.192 2.183a2.187 2.187 0 0 1-2.192 2.183 2.188 2.188 0 0 1-2.193-2.183c0-1.206.982-2.183 2.193-2.183ZM166.004 295.655c1.211 0 2.193.977 2.193 2.183a2.188 2.188 0 0 1-2.193 2.183 2.188 2.188 0 0 1-2.193-2.183c0-1.206.982-2.183 2.193-2.183ZM221.263 295.655c1.211 0 2.192.977 2.192 2.183a2.187 2.187 0 0 1-2.192 2.183 2.188 2.188 0 0 1-2.193-2.183c0-1.206.982-2.183 2.193-2.183ZM166.004 240.64c1.211 0 2.193.977 2.193 2.183a2.188 2.188 0 0 1-2.193 2.183 2.188 2.188 0 0 1-2.193-2.183c0-1.206.982-2.183 2.193-2.183ZM221.263 240.64c1.211 0 2.192.977 2.192 2.183a2.187 2.187 0 0 1-2.192 2.183 2.188 2.188 0 0 1-2.193-2.183c0-1.206.982-2.183 2.193-2.183ZM166.004 313.993c1.211 0 2.193.977 2.193 2.183a2.188 2.188 0 0 1-2.193 2.183 2.188 2.188 0 0 1-2.193-2.183c0-1.206.982-2.183 2.193-2.183ZM221.263 313.993c1.211 0 2.192.977 2.192 2.183a2.187 2.187 0 0 1-2.192 2.183 2.188 2.188 0 0 1-2.193-2.183c0-1.206.982-2.183 2.193-2.183ZM184.424 424.023c1.211 0 2.193.977 2.193 2.183a2.188 2.188 0 0 1-2.193 2.183 2.188 2.188 0 0 1-2.193-2.183c0-1.206.982-2.183 2.193-2.183ZM239.682 424.023c1.211 0 2.193.977 2.193 2.183a2.188 2.188 0 0 1-2.193 2.183 2.188 2.188 0 0 1-2.193-2.183c0-1.206.982-2.183 2.193-2.183ZM184.424 387.346c1.211 0 2.193.978 2.193 2.183a2.189 2.189 0 0 1-2.193 2.184 2.189 2.189 0 0 1-2.193-2.184c0-1.205.982-2.183 2.193-2.183ZM239.682 387.346c1.211 0 2.193.978 2.193 2.183a2.189 2.189 0 0 1-2.193 2.184 2.189 2.189 0 0 1-2.193-2.184c0-1.205.982-2.183 2.193-2.183ZM184.424 332.331c1.211 0 2.193.978 2.193 2.184a2.189 2.189 0 0 1-2.193 2.183 2.189 2.189 0 0 1-2.193-2.183c0-1.206.982-2.184 2.193-2.184ZM239.682 332.331c1.211 0 2.193.978 2.193 2.184a2.189 2.189 0 0 1-2.193 2.183 2.189 2.189 0 0 1-2.193-2.183c0-1.206.982-2.184 2.193-2.184ZM184.424 258.978c1.211 0 2.193.978 2.193 2.183a2.188 2.188 0 0 1-2.193 2.183 2.188 2.188 0 0 1-2.193-2.183c0-1.205.982-2.183 2.193-2.183ZM239.682 258.978c1.211 0 2.193.978 2.193 2.183a2.188 2.188 0 0 1-2.193 2.183 2.188 2.188 0 0 1-2.193-2.183c0-1.205.982-2.183 2.193-2.183ZM184.424 203.963c1.211 0 2.193.978 2.193 2.183a2.189 2.189 0 0 1-2.193 2.184 2.189 2.189 0 0 1-2.193-2.184c0-1.205.982-2.183 2.193-2.183ZM239.682 203.963c1.211 0 2.193.978 2.193 2.183a2.189 2.189 0 0 1-2.193 2.184 2.189 2.189 0 0 1-2.193-2.184c0-1.205.982-2.183 2.193-2.183ZM184.424 405.685c1.211 0 2.193.977 2.193 2.183a2.189 2.189 0 0 1-2.193 2.183 2.189 2.189 0 0 1-2.193-2.183c0-1.206.982-2.183 2.193-2.183ZM239.682 405.685c1.211 0 2.193.977 2.193 2.183a2.189 2.189 0 0 1-2.193 2.183 2.189 2.189 0 0 1-2.193-2.183c0-1.206.982-2.183 2.193-2.183ZM184.424 350.67c1.211 0 2.193.977 2.193 2.183a2.188 2.188 0 0 1-2.193 2.183 2.188 2.188 0 0 1-2.193-2.183c0-1.206.982-2.183 2.193-2.183ZM239.682 350.67c1.211 0 2.193.977 2.193 2.183a2.188 2.188 0 0 1-2.193 2.183 2.188 2.188 0 0 1-2.193-2.183c0-1.206.982-2.183 2.193-2.183ZM184.424 277.316c1.211 0 2.193.978 2.193 2.184a2.189 2.189 0 0 1-2.193 2.183 2.189 2.189 0 0 1-2.193-2.183c0-1.206.982-2.184 2.193-2.184ZM239.682 277.316c1.211 0 2.193.978 2.193 2.184a2.189 2.189 0 0 1-2.193 2.183 2.189 2.189 0 0 1-2.193-2.183c0-1.206.982-2.184 2.193-2.184ZM184.424 222.302c1.211 0 2.193.977 2.193 2.183a2.189 2.189 0 0 1-2.193 2.183 2.189 2.189 0 0 1-2.193-2.183c0-1.206.982-2.183 2.193-2.183ZM239.682 222.302c1.211 0 2.193.977 2.193 2.183a2.189 2.189 0 0 1-2.193 2.183 2.189 2.189 0 0 1-2.193-2.183c0-1.206.982-2.183 2.193-2.183ZM184.424 185.625c1.211 0 2.193.977 2.193 2.183a2.188 2.188 0 0 1-2.193 2.183 2.188 2.188 0 0 1-2.193-2.183c0-1.206.982-2.183 2.193-2.183ZM239.682 185.625c1.211 0 2.193.977 2.193 2.183a2.188 2.188 0 0 1-2.193 2.183 2.188 2.188 0 0 1-2.193-2.183c0-1.206.982-2.183 2.193-2.183ZM184.424 369.008c1.211 0 2.193.977 2.193 2.183a2.188 2.188 0 0 1-2.193 2.183 2.188 2.188 0 0 1-2.193-2.183c0-1.206.982-2.183 2.193-2.183ZM239.682 369.008c1.211 0 2.193.977 2.193 2.183a2.188 2.188 0 0 1-2.193 2.183 2.188 2.188 0 0 1-2.193-2.183c0-1.206.982-2.183 2.193-2.183ZM184.424 295.655c1.211 0 2.193.977 2.193 2.183a2.188 2.188 0 0 1-2.193 2.183 2.188 2.188 0 0 1-2.193-2.183c0-1.206.982-2.183 2.193-2.183ZM239.682 295.655c1.211 0 2.193.977 2.193 2.183a2.188 2.188 0 0 1-2.193 2.183 2.188 2.188 0 0 1-2.193-2.183c0-1.206.982-2.183 2.193-2.183ZM184.424 240.64c1.211 0 2.193.977 2.193 2.183a2.188 2.188 0 0 1-2.193 2.183 2.188 2.188 0 0 1-2.193-2.183c0-1.206.982-2.183 2.193-2.183ZM239.682 240.64c1.211 0 2.193.977 2.193 2.183a2.188 2.188 0 0 1-2.193 2.183 2.188 2.188 0 0 1-2.193-2.183c0-1.206.982-2.183 2.193-2.183ZM184.424 313.993c1.211 0 2.193.977 2.193 2.183a2.188 2.188 0 0 1-2.193 2.183 2.188 2.188 0 0 1-2.193-2.183c0-1.206.982-2.183 2.193-2.183ZM239.682 313.993c1.211 0 2.193.977 2.193 2.183a2.188 2.188 0 0 1-2.193 2.183 2.188 2.188 0 0 1-2.193-2.183c0-1.206.982-2.183 2.193-2.183ZM55.487 424.023c1.211 0 2.193.977 2.193 2.183a2.188 2.188 0 0 1-2.193 2.183 2.188 2.188 0 0 1-2.193-2.183c0-1.206.982-2.183 2.193-2.183ZM55.487 387.346c1.211 0 2.193.978 2.193 2.183a2.189 2.189 0 0 1-2.193 2.184 2.189 2.189 0 0 1-2.193-2.184c0-1.205.982-2.183 2.193-2.183ZM55.487 332.331c1.211 0 2.193.978 2.193 2.184a2.188 2.188 0 0 1-2.193 2.183 2.188 2.188 0 0 1-2.193-2.183c0-1.206.982-2.184 2.193-2.184ZM55.487 258.978c1.211 0 2.193.978 2.193 2.183a2.188 2.188 0 0 1-2.193 2.183 2.188 2.188 0 0 1-2.193-2.183c0-1.205.982-2.183 2.193-2.183ZM55.487 203.963c1.211 0 2.193.978 2.193 2.183a2.189 2.189 0 0 1-2.193 2.184 2.189 2.189 0 0 1-2.193-2.184c0-1.205.982-2.183 2.193-2.183ZM55.487 405.685c1.211 0 2.193.977 2.193 2.183a2.188 2.188 0 0 1-2.193 2.183 2.188 2.188 0 0 1-2.193-2.183c0-1.206.982-2.183 2.193-2.183ZM55.487 350.67c1.211 0 2.193.977 2.193 2.183a2.188 2.188 0 0 1-2.193 2.183 2.188 2.188 0 0 1-2.193-2.183c0-1.206.982-2.183 2.193-2.183ZM55.487 277.316c1.211 0 2.193.978 2.193 2.184a2.188 2.188 0 0 1-2.193 2.183 2.188 2.188 0 0 1-2.193-2.183c0-1.206.982-2.184 2.193-2.184ZM55.487 222.302c1.211 0 2.193.977 2.193 2.183a2.188 2.188 0 0 1-2.193 2.183 2.188 2.188 0 0 1-2.193-2.183c0-1.206.982-2.183 2.193-2.183ZM55.487 185.625c1.211 0 2.193.977 2.193 2.183a2.188 2.188 0 0 1-2.193 2.183 2.188 2.188 0 0 1-2.193-2.183c0-1.206.982-2.183 2.193-2.183ZM55.487 369.008c1.211 0 2.193.977 2.193 2.183a2.188 2.188 0 0 1-2.193 2.183 2.188 2.188 0 0 1-2.193-2.183c0-1.206.982-2.183 2.193-2.183ZM55.487 295.655c1.211 0 2.193.977 2.193 2.183a2.188 2.188 0 0 1-2.193 2.183 2.188 2.188 0 0 1-2.193-2.183c0-1.206.982-2.183 2.193-2.183ZM55.487 240.64c1.211 0 2.193.977 2.193 2.183a2.188 2.188 0 0 1-2.193 2.183 2.188 2.188 0 0 1-2.193-2.183c0-1.206.982-2.183 2.193-2.183ZM55.487 313.993c1.211 0 2.193.978 2.193 2.183a2.188 2.188 0 0 1-2.193 2.183 2.188 2.188 0 0 1-2.193-2.183c0-1.205.982-2.183 2.193-2.183ZM110.746 424.023c1.211 0 2.193.977 2.193 2.183a2.188 2.188 0 0 1-2.193 2.183 2.188 2.188 0 0 1-2.193-2.183c0-1.206.982-2.183 2.193-2.183ZM110.746 387.346c1.211 0 2.193.978 2.193 2.183a2.189 2.189 0 0 1-2.193 2.184 2.189 2.189 0 0 1-2.193-2.184c0-1.205.982-2.183 2.193-2.183ZM110.746 332.331c1.211 0 2.193.978 2.193 2.184a2.189 2.189 0 0 1-2.193 2.183 2.189 2.189 0 0 1-2.193-2.183c0-1.206.982-2.184 2.193-2.184ZM110.746 258.978c1.211 0 2.193.978 2.193 2.183a2.188 2.188 0 0 1-2.193 2.183 2.188 2.188 0 0 1-2.193-2.183c0-1.205.982-2.183 2.193-2.183ZM110.746 203.963c1.211 0 2.193.978 2.193 2.183a2.189 2.189 0 0 1-2.193 2.184 2.189 2.189 0 0 1-2.193-2.184c0-1.205.982-2.183 2.193-2.183ZM110.746 405.685c1.211 0 2.193.977 2.193 2.183a2.189 2.189 0 0 1-2.193 2.183 2.189 2.189 0 0 1-2.193-2.183c0-1.206.982-2.183 2.193-2.183ZM110.746 350.67c1.211 0 2.193.977 2.193 2.183a2.188 2.188 0 0 1-2.193 2.183 2.188 2.188 0 0 1-2.193-2.183c0-1.206.982-2.183 2.193-2.183ZM110.746 277.316c1.211 0 2.193.978 2.193 2.184a2.189 2.189 0 0 1-2.193 2.183 2.189 2.189 0 0 1-2.193-2.183c0-1.206.982-2.184 2.193-2.184ZM110.746 222.302c1.211 0 2.193.977 2.193 2.183a2.189 2.189 0 0 1-2.193 2.183 2.189 2.189 0 0 1-2.193-2.183c0-1.206.982-2.183 2.193-2.183ZM110.746 185.625c1.211 0 2.193.977 2.193 2.183a2.188 2.188 0 0 1-2.193 2.183 2.188 2.188 0 0 1-2.193-2.183c0-1.206.982-2.183 2.193-2.183ZM110.746 369.008c1.211 0 2.193.977 2.193 2.183a2.188 2.188 0 0 1-2.193 2.183 2.188 2.188 0 0 1-2.193-2.183c0-1.206.982-2.183 2.193-2.183ZM110.746 295.655c1.211 0 2.193.977 2.193 2.183a2.188 2.188 0 0 1-2.193 2.183 2.188 2.188 0 0 1-2.193-2.183c0-1.206.982-2.183 2.193-2.183ZM110.746 240.64c1.211 0 2.193.977 2.193 2.183a2.188 2.188 0 0 1-2.193 2.183 2.188 2.188 0 0 1-2.193-2.183c0-1.206.982-2.183 2.193-2.183ZM110.746 313.993c1.211 0 2.193.977 2.193 2.183a2.188 2.188 0 0 1-2.193 2.183 2.188 2.188 0 0 1-2.193-2.183c0-1.206.982-2.183 2.193-2.183ZM147.585 424.023c1.211 0 2.193.977 2.193 2.183a2.188 2.188 0 0 1-2.193 2.183 2.188 2.188 0 0 1-2.193-2.183c0-1.206.982-2.183 2.193-2.183ZM202.843 424.023c1.211 0 2.193.977 2.193 2.183a2.188 2.188 0 0 1-2.193 2.183 2.188 2.188 0 0 1-2.193-2.183c0-1.206.982-2.183 2.193-2.183ZM147.585 387.346c1.211 0 2.193.978 2.193 2.183a2.189 2.189 0 0 1-2.193 2.184 2.189 2.189 0 0 1-2.193-2.184c0-1.205.982-2.183 2.193-2.183ZM202.843 387.346c1.211 0 2.193.978 2.193 2.183a2.189 2.189 0 0 1-2.193 2.184 2.189 2.189 0 0 1-2.193-2.184c0-1.205.982-2.183 2.193-2.183ZM147.585 332.331c1.211 0 2.193.978 2.193 2.184a2.189 2.189 0 0 1-2.193 2.183 2.189 2.189 0 0 1-2.193-2.183c0-1.206.982-2.184 2.193-2.184ZM202.843 332.331c1.211 0 2.193.978 2.193 2.184a2.189 2.189 0 0 1-2.193 2.183 2.189 2.189 0 0 1-2.193-2.183c0-1.206.982-2.184 2.193-2.184ZM147.585 258.978c1.211 0 2.193.978 2.193 2.183a2.188 2.188 0 0 1-2.193 2.183 2.188 2.188 0 0 1-2.193-2.183c0-1.205.982-2.183 2.193-2.183ZM202.843 258.978c1.211 0 2.193.978 2.193 2.183a2.188 2.188 0 0 1-2.193 2.183 2.188 2.188 0 0 1-2.193-2.183c0-1.205.982-2.183 2.193-2.183ZM147.585 203.963c1.211 0 2.193.978 2.193 2.183a2.189 2.189 0 0 1-2.193 2.184 2.189 2.189 0 0 1-2.193-2.184c0-1.205.982-2.183 2.193-2.183ZM202.843 203.963c1.211 0 2.193.978 2.193 2.183a2.189 2.189 0 0 1-2.193 2.184 2.189 2.189 0 0 1-2.193-2.184c0-1.205.982-2.183 2.193-2.183ZM147.585 405.685c1.211 0 2.193.977 2.193 2.183a2.189 2.189 0 0 1-2.193 2.183 2.189 2.189 0 0 1-2.193-2.183c0-1.206.982-2.183 2.193-2.183ZM202.843 405.685c1.211 0 2.193.977 2.193 2.183a2.189 2.189 0 0 1-2.193 2.183 2.189 2.189 0 0 1-2.193-2.183c0-1.206.982-2.183 2.193-2.183ZM147.585 350.67c1.211 0 2.193.977 2.193 2.183a2.188 2.188 0 0 1-2.193 2.183 2.188 2.188 0 0 1-2.193-2.183c0-1.206.982-2.183 2.193-2.183ZM202.843 350.67c1.211 0 2.193.977 2.193 2.183a2.188 2.188 0 0 1-2.193 2.183 2.188 2.188 0 0 1-2.193-2.183c0-1.206.982-2.183 2.193-2.183ZM147.585 277.316c1.211 0 2.193.978 2.193 2.184a2.189 2.189 0 0 1-2.193 2.183 2.189 2.189 0 0 1-2.193-2.183c0-1.206.982-2.184 2.193-2.184ZM202.843 277.316c1.211 0 2.193.978 2.193 2.184a2.189 2.189 0 0 1-2.193 2.183 2.189 2.189 0 0 1-2.193-2.183c0-1.206.982-2.184 2.193-2.184ZM147.585 222.302c1.211 0 2.193.977 2.193 2.183a2.189 2.189 0 0 1-2.193 2.183 2.189 2.189 0 0 1-2.193-2.183c0-1.206.982-2.183 2.193-2.183ZM202.843 222.302c1.211 0 2.193.977 2.193 2.183a2.189 2.189 0 0 1-2.193 2.183 2.189 2.189 0 0 1-2.193-2.183c0-1.206.982-2.183 2.193-2.183ZM147.585 185.625c1.211 0 2.193.977 2.193 2.183a2.188 2.188 0 0 1-2.193 2.183 2.188 2.188 0 0 1-2.193-2.183c0-1.206.982-2.183 2.193-2.183ZM202.843 185.625c1.211 0 2.193.977 2.193 2.183a2.188 2.188 0 0 1-2.193 2.183 2.188 2.188 0 0 1-2.193-2.183c0-1.206.982-2.183 2.193-2.183ZM147.585 369.008c1.211 0 2.193.977 2.193 2.183a2.188 2.188 0 0 1-2.193 2.183 2.188 2.188 0 0 1-2.193-2.183c0-1.206.982-2.183 2.193-2.183ZM202.843 369.008c1.211 0 2.193.977 2.193 2.183a2.188 2.188 0 0 1-2.193 2.183 2.188 2.188 0 0 1-2.193-2.183c0-1.206.982-2.183 2.193-2.183ZM147.585 295.655c1.211 0 2.193.977 2.193 2.183a2.188 2.188 0 0 1-2.193 2.183 2.188 2.188 0 0 1-2.193-2.183c0-1.206.982-2.183 2.193-2.183ZM202.843 295.655c1.211 0 2.193.977 2.193 2.183a2.188 2.188 0 0 1-2.193 2.183 2.188 2.188 0 0 1-2.193-2.183c0-1.206.982-2.183 2.193-2.183ZM147.585 240.64c1.211 0 2.193.977 2.193 2.183a2.188 2.188 0 0 1-2.193 2.183 2.188 2.188 0 0 1-2.193-2.183c0-1.206.982-2.183 2.193-2.183ZM202.843 240.64c1.211 0 2.193.977 2.193 2.183a2.188 2.188 0 0 1-2.193 2.183 2.188 2.188 0 0 1-2.193-2.183c0-1.206.982-2.183 2.193-2.183ZM147.585 313.993c1.211 0 2.193.977 2.193 2.183a2.188 2.188 0 0 1-2.193 2.183 2.188 2.188 0 0 1-2.193-2.183c0-1.206.982-2.183 2.193-2.183ZM202.843 313.993c1.211 0 2.193.977 2.193 2.183a2.188 2.188 0 0 1-2.193 2.183 2.188 2.188 0 0 1-2.193-2.183c0-1.206.982-2.183 2.193-2.183Z"/></g><g opacity=".23"><path fill="#fff" fill-rule="evenodd" d="M678.865 36.102V24.414H665.945v3.652h8.883v8.036h4.037Z" clip-rule="evenodd"/><path fill="#fff" fill-rule="evenodd" d="M678.865 36.102V24.414H665.945v3.652h8.883v8.036h4.037ZM380.885 36.102V24.414H393.805v3.652h-8.883v8.036h-4.037ZM678.865 293.961h-12.92v-3.652h8.883v-8.036h4.037v11.688ZM380.885 293.961h12.92v-3.652h-8.883v-8.036h-4.037v11.688Z" clip-rule="evenodd"/><path fill="#fff" d="M678.865 158.092v-11.688h-4.038v11.688zM384.922 158.092v-11.688h-4.038v11.688zM523.818 28.066h12.921v-3.652h-12.921zM523.818 293.961h12.921v-3.652h-12.921z"/><path stroke="#fff" stroke-width="1.125" d="M382.5 25.875h294.75V292.5H382.5z"/></g></svg>